STARTFONT 2.1
FONT -WRI-Mathematica2-Bold-R-Normal--14-140-75-75-p-80-Adobe-FontSpecific
SIZE 14 75 75
FONTBOUNDINGBOX 36 86 -1 -55
STARTPROPERTIES 16
FOUNDRY "WRI"
FAMILY_NAME "Mathematica2"
WEIGHT_NAME "Bold"
SLANT "R"
SETWIDTH_NAME "Normal"
PIXEL_SIZE 14
POINT_SIZE 140
RESOLUTION_X 75
RESOLUTION_Y 75
SPACING "p"
AVERAGE_WIDTH 80
CHARSET_REGISTRY "Adobe"
CHARSET_ENCODING "FontSpecific"
FONT_DESCENT 55
FONT_ASCENT 31
DEFAULT_CHAR 32
ENDPROPERTIES
CHARS 223
STARTCHAR Space
ENCODING 32
SWIDTH 189 0
DWIDTH 3 0
BBX 0 0 0 0
BITMAP
ENDCHAR
STARTCHAR Radical1Extens
ENCODING 33
SWIDTH 230 0
DWIDTH 3 0
BBX 5 1 -1 3
BITMAP
f8
ENDCHAR
STARTCHAR Radical2
ENCODING 34
SWIDTH 975 0
DWIDTH 14 0
BBX 14 22 1 -13
BITMAP
001c
0010
0010
0020
0020
0020
0020
0020
0040
0040
1040
7040
9840
1880
0c80
0c80
0e80
0700
0700
0300
0300
0100
ENDCHAR
STARTCHAR Radical2Extens
ENCODING 35
SWIDTH 230 0
DWIDTH 3 0
BBX 5 1 -1 8
BITMAP
f8
ENDCHAR
STARTCHAR Radical3
ENCODING 36
SWIDTH 1115 0
DWIDTH 16 0
BBX 15 40 1 -18
BITMAP
000e
0008
0008
0008
0008
0010
0010
0010
0010
0010
0010
0010
0020
0020
0020
0020
0020
0020
0020
0040
0040
0040
0040
1040
7040
9840
1880
1880
0c80
0c80
0c80
0680
0680
0700
0300
0300
0300
0100
0100
0100
ENDCHAR
STARTCHAR Radical3Extens
ENCODING 37
SWIDTH 230 0
DWIDTH 3 0
BBX 5 1 -1 21
BITMAP
f8
ENDCHAR
STARTCHAR Radical4
ENCODING 38
SWIDTH 1127 0
DWIDTH 16 0
BBX 15 54 1 -23
BITMAP
000e
0008
0008
0008
0008
0008
0008
0008
0010
0010
0010
0010
0010
0010
0010
0010
0010
0010
0010
0010
0010
0010
0020
0020
0020
0020
0020
0020
0020
0020
0020
0020
1020
7020
9820
1840
1840
0c40
0c40
0c40
0e40
0640
0640
0740
0340
0340
0340
01c0
01c0
0180
0080
0080
0080
0080
ENDCHAR
STARTCHAR Radical4Extens
ENCODING 39
SWIDTH 230 0
DWIDTH 3 0
BBX 5 1 -1 30
BITMAP
f8
ENDCHAR
STARTCHAR Radical5
ENCODING 40
SWIDTH 1070 0
DWIDTH 15 0
BBX 10 57 1 -26
BITMAP
0040
0040
0040
0040
0040
0040
0040
0040
0040
0040
0040
0040
0040
0040
0040
0040
0040
0040
0040
0040
0040
0040
0040
0040
0040
0040
0040
0040
0040
0040
0040
0040
1040
7840
9840
1840
1840
0c40
0c40
0c40
0640
0640
0640
0340
0340
0340
03c0
01c0
01c0
01c0
00c0
00c0
00c0
0040
0040
0040
0040
ENDCHAR
STARTCHAR Radical5VertExtens
ENCODING 41
SWIDTH 1070 0
DWIDTH 15 0
BBX 1 5 10 0
BITMAP
80
80
80
80
80
ENDCHAR
STARTCHAR Radical5Top
ENCODING 42
SWIDTH 1070 0
DWIDTH 15 0
BBX 5 5 10 0
BITMAP
f8
80
80
80
80
ENDCHAR
STARTCHAR Radical5Extens
ENCODING 43
SWIDTH 230 0
DWIDTH 3 0
BBX 5 1 -1 4
BITMAP
f8
ENDCHAR
STARTCHAR FixedFreeRadical1
ENCODING 44
SWIDTH 855 0
DWIDTH 12 0
BBX 11 15 1 -11
BITMAP
0020
0040
0040
0040
0080
3080
7080
b100
1900
1900
0d00
0e00
0e00
0600
0400
ENDCHAR
STARTCHAR FixedFreeRadical2
ENCODING 45
SWIDTH 975 0
DWIDTH 14 0
BBX 12 22 1 -13
BITMAP
0010
0010
0020
0020
0020
0020
0020
0040
0040
0040
1040
7040
9880
1880
0c80
0c80
0e80
0700
0700
0300
0300
0100
ENDCHAR
STARTCHAR FixedFreeRadical3
ENCODING 46
SWIDTH 1115 0
DWIDTH 16 0
BBX 14 39 1 -17
BITMAP
0004
0004
0004
0008
0008
0008
0008
0008
0008
0008
0010
0010
0010
0010
0010
0010
0010
0020
0020
0020
0020
0020
0020
1020
7020
9840
1840
0c40
0c40
0c40
0640
0640
0780
0380
0380
0180
0180
0180
0080
ENDCHAR
STARTCHAR FixedFreeRadical4
ENCODING 47
SWIDTH 1127 0
DWIDTH 16 0
BBX 13 54 1 -23
BITMAP
0008
0008
0008
0008
0010
0010
0010
0010
0010
0010
0010
0010
0010
0010
0010
0010
0020
0020
0020
0020
0020
0020
0020
0020
0020
0020
0020
0040
0040
0040
0040
0040
1040
7040
b040
1840
1840
1840
0cc0
0c80
0c80
0c80
0680
0680
0680
0780
0380
0380
0380
0180
0100
0100
0100
0100
ENDCHAR
STARTCHAR TexRad1
ENCODING 48
SWIDTH 855 0
DWIDTH 12 0
BBX 12 14 1 -13
BITMAP
0070
0040
0040
0080
0080
1080
7080
d900
1900
0d00
0d00
0600
0600
0200
ENDCHAR
STARTCHAR TexRad2
ENCODING 49
SWIDTH 975 0
DWIDTH 14 0
BBX 14 23 1 -22
BITMAP
001c
0010
0010
0010
0020
0020
0020
0020
0020
0040
1040
7040
9840
1840
0c80
0c80
0680
0680
0380
0300
0300
0100
0100
ENDCHAR
STARTCHAR TexRad3
ENCODING 50
SWIDTH 1115 0
DWIDTH 16 0
BBX 15 40 1 -39
BITMAP
000e
0008
0008
0008
0008
0010
0010
0010
0010
0010
0010
0010
0020
0020
0020
0020
0020
0020
0020
0040
0040
0040
0040
1040
7040
d840
1880
1880
0c80
0c80
0c80
0680
0680
0700
0300
0300
0300
0100
0100
0100
ENDCHAR
STARTCHAR TexRad4
ENCODING 51
SWIDTH 1127 0
DWIDTH 16 0
BBX 15 53 1 -52
BITMAP
000e
0008
0008
0008
0008
0008
0008
0010
0010
0010
0010
0010
0010
0010
0010
0010
0010
0010
0010
0020
0020
0020
0020
0020
0020
0020
0020
0020
0020
0020
0020
0020
1040
7040
d840
1840
1840
0c40
0c40
0c40
0e40
0640
0640
0640
0380
0380
0380
0180
0180
0180
0080
0080
0080
ENDCHAR
STARTCHAR TexRad5
ENCODING 52
SWIDTH 1070 0
DWIDTH 15 0
BBX 10 56 1 -55
BITMAP
0040
0040
0040
0040
0040
0040
0040
0040
0040
0040
0040
0040
0040
0040
0040
0040
0040
0040
0040
0040
0040
0040
0040
0040
0040
0040
0040
0040
0040
0040
0040
0040
1040
7840
9840
1840
1c40
0c40
0c40
0e40
0640
0640
0640
0340
0340
0340
01c0
01c0
01c0
00c0
00c0
00c0
0040
0040
0040
0040
ENDCHAR
STARTCHAR TexRad5VertExt
ENCODING 53
SWIDTH 1070 0
DWIDTH 15 0
BBX 1 5 10 -4
BITMAP
80
80
80
80
80
ENDCHAR
STARTCHAR TexRad5Top
ENCODING 54
SWIDTH 1070 0
DWIDTH 15 0
BBX 5 5 10 -4
BITMAP
f8
80
80
80
80
ENDCHAR
STARTCHAR TexRadExtens
ENCODING 55
SWIDTH 230 0
DWIDTH 3 0
BBX 5 1 -1 0
BITMAP
f8
ENDCHAR
STARTCHAR LBrace1
ENCODING 56
SWIDTH 372 0
DWIDTH 5 0
BBX 4 12 0 -2
BITMAP
30
60
60
60
60
60
c0
60
60
60
60
30
ENDCHAR
STARTCHAR LBrace2
ENCODING 57
SWIDTH 384 0
DWIDTH 5 0
BBX 4 18 0 -5
BITMAP
30
60
60
60
60
60
60
60
60
c0
60
60
60
60
60
60
60
30
ENDCHAR
STARTCHAR LBrace3
ENCODING 58
SWIDTH 484 0
DWIDTH 7 0
BBX 6 23 0 -8
BITMAP
0c
18
10
30
30
30
30
30
30
30
60
c0
60
30
30
30
30
30
30
30
10
18
0c
ENDCHAR
STARTCHAR LBrace4
ENCODING 59
SWIDTH 599 0
DWIDTH 8 0
BBX 7 29 0 -11
BITMAP
02
04
0c
18
18
18
18
18
18
18
18
18
30
20
c0
20
30
18
18
18
18
18
18
18
18
18
0c
04
02
ENDCHAR
STARTCHAR RBrace1
ENCODING 60
SWIDTH 372 0
DWIDTH 5 0
BBX 4 12 1 -2
BITMAP
c0
60
60
60
60
60
30
60
60
60
60
c0
ENDCHAR
STARTCHAR RBrace2
ENCODING 61
SWIDTH 384 0
DWIDTH 5 0
BBX 4 18 1 -5
BITMAP
c0
60
60
60
60
60
60
60
60
10
60
60
60
60
60
60
60
c0
ENDCHAR
STARTCHAR RBrace3
ENCODING 62
SWIDTH 484 0
DWIDTH 7 0
BBX 6 23 1 -8
BITMAP
c0
60
20
30
30
30
30
30
30
30
18
0c
18
30
30
30
30
30
30
30
20
60
c0
ENDCHAR
STARTCHAR RBrace4
ENCODING 63
SWIDTH 599 0
DWIDTH 8 0
BBX 7 29 1 -11
BITMAP
80
40
60
30
30
30
30
30
30
30
30
30
18
08
06
08
18
30
30
30
30
30
30
30
30
30
60
40
80
ENDCHAR
STARTCHAR LBracket1
ENCODING 64
SWIDTH 359 0
DWIDTH 5 0
BBX 3 12 1 -2
BITMAP
e0
c0
c0
c0
c0
c0
c0
c0
c0
c0
c0
e0
ENDCHAR
STARTCHAR LBracket2
ENCODING 65
SWIDTH 369 0
DWIDTH 5 0
BBX 3 18 1 -5
BITMAP
e0
c0
c0
c0
c0
c0
c0
c0
c0
c0
c0
c0
c0
c0
c0
c0
c0
e0
ENDCHAR
STARTCHAR LBracket3
ENCODING 66
SWIDTH 379 0
DWIDTH 5 0
BBX 3 23 1 -8
BITMAP
e0
c0
c0
c0
c0
c0
c0
c0
c0
c0
c0
c0
c0
c0
c0
c0
c0
c0
c0
c0
c0
c0
e0
ENDCHAR
STARTCHAR LBracket4
ENCODING 67
SWIDTH 389 0
DWIDTH 5 0
BBX 3 29 1 -11
BITMAP
e0
c0
c0
c0
c0
c0
c0
c0
c0
c0
c0
c0
c0
c0
c0
c0
c0
c0
c0
c0
c0
c0
c0
c0
c0
c0
c0
c0
e0
ENDCHAR
STARTCHAR RBracket1
ENCODING 68
SWIDTH 359 0
DWIDTH 5 0
BBX 3 12 1 -2
BITMAP
e0
60
60
60
60
60
60
60
60
60
60
e0
ENDCHAR
STARTCHAR RBracket2
ENCODING 69
SWIDTH 369 0
DWIDTH 5 0
BBX 3 18 1 -5
BITMAP
e0
60
60
60
60
60
60
60
60
60
60
60
60
60
60
60
60
e0
ENDCHAR
STARTCHAR RBracket3
ENCODING 70
SWIDTH 379 0
DWIDTH 5 0
BBX 3 23 1 -8
BITMAP
e0
60
60
60
60
60
60
60
60
60
60
60
60
60
60
60
60
60
60
60
60
60
e0
ENDCHAR
STARTCHAR RBracket4
ENCODING 71
SWIDTH 389 0
DWIDTH 5 0
BBX 3 29 1 -11
BITMAP
e0
60
60
60
60
60
60
60
60
60
60
60
60
60
60
60
60
60
60
60
60
60
60
60
60
60
60
60
e0
ENDCHAR
STARTCHAR LParen1
ENCODING 72
SWIDTH 349 0
DWIDTH 5 0
BBX 4 12 1 -2
BITMAP
10
20
60
c0
c0
c0
c0
c0
c0
60
20
10
ENDCHAR
STARTCHAR LParen2
ENCODING 73
SWIDTH 334 0
DWIDTH 5 0
BBX 4 18 1 -5
BITMAP
10
20
60
60
c0
c0
c0
c0
c0
c0
c0
c0
c0
c0
60
60
20
10
ENDCHAR
STARTCHAR LParen3
ENCODING 74
SWIDTH 353 0
DWIDTH 5 0
BBX 4 23 1 -8
BITMAP
10
20
20
60
60
c0
c0
c0
c0
c0
c0
c0
c0
c0
c0
c0
c0
c0
60
60
20
20
10
ENDCHAR
STARTCHAR LParen4
ENCODING 75
SWIDTH 399 0
DWIDTH 6 0
BBX 4 29 1 -11
BITMAP
10
20
20
60
60
c0
c0
c0
c0
c0
c0
c0
c0
c0
c0
c0
c0
c0
c0
c0
c0
c0
c0
c0
60
60
20
20
10
ENDCHAR
STARTCHAR RParen1
ENCODING 76
SWIDTH 349 0
DWIDTH 5 0
BBX 4 12 0 -2
BITMAP
80
40
60
30
30
30
30
30
30
60
40
80
ENDCHAR
STARTCHAR RParen2
ENCODING 77
SWIDTH 334 0
DWIDTH 5 0
BBX 4 18 0 -5
BITMAP
80
40
60
60
30
30
30
30
30
30
30
30
30
30
60
60
40
80
ENDCHAR
STARTCHAR RParen3
ENCODING 78
SWIDTH 353 0
DWIDTH 5 0
BBX 4 23 0 -8
BITMAP
80
40
40
60
60
30
30
30
30
30
30
30
30
30
30
30
30
30
60
60
40
40
80
ENDCHAR
STARTCHAR RParen4
ENCODING 79
SWIDTH 399 0
DWIDTH 6 0
BBX 4 29 1 -11
BITMAP
80
40
40
60
60
30
30
30
30
30
30
30
30
30
30
30
30
30
30
30
30
30
30
30
60
60
40
40
80
ENDCHAR
STARTCHAR DblLBracket1
ENCODING 80
SWIDTH 484 0
DWIDTH 7 0
BBX 5 12 1 -2
BITMAP
f8
b0
b0
b0
b0
b0
b0
b0
b0
b0
b0
f8
ENDCHAR
STARTCHAR DblLBracket2
ENCODING 81
SWIDTH 494 0
DWIDTH 7 0
BBX 5 18 1 -5
BITMAP
f8
b0
b0
b0
b0
b0
b0
b0
b0
b0
b0
b0
b0
b0
b0
b0
b0
f8
ENDCHAR
STARTCHAR DblLBracket3
ENCODING 82
SWIDTH 504 0
DWIDTH 7 0
BBX 6 23 1 -8
BITMAP
fc
b0
b0
b0
b0
b0
b0
b0
b0
b0
b0
b0
b0
b0
b0
b0
b0
b0
b0
b0
b0
b0
fc
ENDCHAR
STARTCHAR DblLBracket4
ENCODING 83
SWIDTH 514 0
DWIDTH 7 0
BBX 6 29 1 -11
BITMAP
fc
b0
b0
b0
b0
b0
b0
b0
b0
b0
b0
b0
b0
b0
b0
b0
b0
b0
b0
b0
b0
b0
b0
b0
b0
b0
b0
b0
fc
ENDCHAR
STARTCHAR DblRBracket1
ENCODING 84
SWIDTH 484 0
DWIDTH 7 0
BBX 5 12 1 -2
BITMAP
f8
68
68
68
68
68
68
68
68
68
68
f8
ENDCHAR
STARTCHAR DblRBracket2
ENCODING 85
SWIDTH 494 0
DWIDTH 7 0
BBX 5 18 1 -5
BITMAP
f8
68
68
68
68
68
68
68
68
68
68
68
68
68
68
68
68
f8
ENDCHAR
STARTCHAR DblRBracket3
ENCODING 86
SWIDTH 504 0
DWIDTH 7 0
BBX 6 23 0 -8
BITMAP
fc
34
34
34
34
34
34
34
34
34
34
34
34
34
34
34
34
34
34
34
34
34
fc
ENDCHAR
STARTCHAR DblRBracket4
ENCODING 87
SWIDTH 514 0
DWIDTH 7 0
BBX 6 29 0 -11
BITMAP
fc
34
34
34
34
34
34
34
34
34
34
34
34
34
34
34
34
34
34
34
34
34
34
34
34
34
34
34
fc
ENDCHAR
STARTCHAR LAngleBracket1
ENCODING 88
SWIDTH 398 0
DWIDTH 6 0
BBX 4 12 1 -2
BITMAP
10
20
20
60
60
c0
c0
60
60
20
20
10
ENDCHAR
STARTCHAR LAngleBracket2
ENCODING 89
SWIDTH 375 0
DWIDTH 5 0
BBX 4 18 1 -5
BITMAP
10
30
20
20
60
60
60
c0
c0
c0
c0
60
60
60
20
20
30
10
ENDCHAR
STARTCHAR LAngleBracket3
ENCODING 90
SWIDTH 378 0
DWIDTH 5 0
BBX 4 23 1 -8
BITMAP
10
10
30
30
20
20
60
60
60
40
c0
c0
c0
40
60
60
60
20
20
30
30
10
10
ENDCHAR
STARTCHAR LAngleBracket4
ENCODING 91
SWIDTH 394 0
DWIDTH 6 0
BBX 4 29 1 -11
BITMAP
10
10
30
30
20
20
20
60
60
60
40
40
c0
c0
c0
c0
c0
40
40
60
60
60
20
20
20
30
30
10
10
ENDCHAR
STARTCHAR RAngleBracket1
ENCODING 92
SWIDTH 398 0
DWIDTH 6 0
BBX 4 12 1 -2
BITMAP
80
40
40
60
60
30
30
60
60
40
40
80
ENDCHAR
STARTCHAR RAngleBracket2
ENCODING 93
SWIDTH 375 0
DWIDTH 5 0
BBX 4 18 0 -5
BITMAP
80
c0
40
40
60
60
60
30
30
30
30
60
60
60
40
40
c0
80
ENDCHAR
STARTCHAR RAngleBracket3
ENCODING 94
SWIDTH 378 0
DWIDTH 5 0
BBX 4 23 0 -8
BITMAP
80
80
c0
c0
40
40
60
60
60
20
30
30
30
20
60
60
60
40
40
c0
c0
80
80
ENDCHAR
STARTCHAR RAngleBracket4
ENCODING 95
SWIDTH 394 0
DWIDTH 6 0
BBX 4 29 1 -11
BITMAP
80
80
c0
c0
40
40
40
60
60
60
20
20
30
30
30
30
30
20
20
60
60
60
40
40
40
c0
c0
80
80
ENDCHAR
STARTCHAR LCeiling1
ENCODING 96
SWIDTH 411 0
DWIDTH 6 0
BBX 4 13 1 -3
BITMAP
f0
f0
c0
c0
c0
c0
c0
c0
c0
c0
c0
c0
c0
ENDCHAR
STARTCHAR LCeiling2
ENCODING 97
SWIDTH 411 0
DWIDTH 6 0
BBX 4 19 1 -6
BITMAP
f0
f0
c0
c0
c0
c0
c0
c0
c0
c0
c0
c0
c0
c0
c0
c0
c0
c0
c0
ENDCHAR
STARTCHAR LCeiling3
ENCODING 98
SWIDTH 411 0
DWIDTH 6 0
BBX 4 24 1 -9
BITMAP
f0
f0
c0
c0
c0
c0
c0
c0
c0
c0
c0
c0
c0
c0
c0
c0
c0
c0
c0
c0
c0
c0
c0
c0
ENDCHAR
STARTCHAR LCeiling4
ENCODING 99
SWIDTH 411 0
DWIDTH 6 0
BBX 4 29 1 -11
BITMAP
f0
f0
c0
c0
c0
c0
c0
c0
c0
c0
c0
c0
c0
c0
c0
c0
c0
c0
c0
c0
c0
c0
c0
c0
c0
c0
c0
c0
c0
ENDCHAR
STARTCHAR LFloor1
ENCODING 100
SWIDTH 411 0
DWIDTH 6 0
BBX 4 12 1 -2
BITMAP
c0
c0
c0
c0
c0
c0
c0
c0
c0
c0
f0
f0
ENDCHAR
STARTCHAR LFloor2
ENCODING 101
SWIDTH 411 0
DWIDTH 6 0
BBX 4 18 1 -5
BITMAP
c0
c0
c0
c0
c0
c0
c0
c0
c0
c0
c0
c0
c0
c0
c0
c0
f0
f0
ENDCHAR
STARTCHAR LFloor3
ENCODING 102
SWIDTH 411 0
DWIDTH 6 0
BBX 4 24 1 -8
BITMAP
c0
c0
c0
c0
c0
c0
c0
c0
c0
c0
c0
c0
c0
c0
c0
c0
c0
c0
c0
c0
c0
c0
f0
f0
ENDCHAR
STARTCHAR LFloor4
ENCODING 103
SWIDTH 411 0
DWIDTH 6 0
BBX 4 30 1 -11
BITMAP
c0
c0
c0
c0
c0
c0
c0
c0
c0
c0
c0
c0
c0
c0
c0
c0
c0
c0
c0
c0
c0
c0
c0
c0
c0
c0
c0
c0
f0
f0
ENDCHAR
STARTCHAR LFlrClngExtens
ENCODING 104
SWIDTH 411 0
DWIDTH 6 0
BBX 2 6 1 -1
BITMAP
c0
c0
c0
c0
c0
c0
ENDCHAR
STARTCHAR LParenTop
ENCODING 105
SWIDTH 421 0
DWIDTH 6 0
BBX 5 12 1 -1
BITMAP
08
10
20
60
60
40
c0
c0
c0
c0
c0
c0
ENDCHAR
STARTCHAR LParenExtens
ENCODING 106
SWIDTH 421 0
DWIDTH 6 0
BBX 2 6 1 -1
BITMAP
c0
c0
c0
c0
c0
c0
ENDCHAR
STARTCHAR LParenBottom
ENCODING 107
SWIDTH 421 0
DWIDTH 6 0
BBX 5 12 1 0
BITMAP
c0
c0
c0
c0
c0
c0
40
60
60
20
10
08
ENDCHAR
STARTCHAR LBraceTop
ENCODING 108
SWIDTH 597 0
DWIDTH 8 0
BBX 4 10 3 -1
BITMAP
10
20
60
40
c0
c0
c0
c0
c0
c0
ENDCHAR
STARTCHAR LBraceMiddle
ENCODING 109
SWIDTH 597 0
DWIDTH 8 0
BBX 5 11 0 -2
BITMAP
18
18
18
30
60
c0
60
30
18
18
18
ENDCHAR
STARTCHAR LBraceBottom
ENCODING 110
SWIDTH 597 0
DWIDTH 8 0
BBX 4 10 3 0
BITMAP
c0
c0
c0
c0
c0
c0
40
60
20
10
ENDCHAR
STARTCHAR BraceExtens
ENCODING 111
SWIDTH 597 0
DWIDTH 8 0
BBX 2 6 3 -1
BITMAP
c0
c0
c0
c0
c0
c0
ENDCHAR
STARTCHAR RCeiling1
ENCODING 112
SWIDTH 411 0
DWIDTH 6 0
BBX 4 13 1 -3
BITMAP
f0
f0
30
30
30
30
30
30
30
30
30
30
30
ENDCHAR
STARTCHAR RCeiling2
ENCODING 113
SWIDTH 411 0
DWIDTH 6 0
BBX 4 19 1 -6
BITMAP
f0
f0
30
30
30
30
30
30
30
30
30
30
30
30
30
30
30
30
30
ENDCHAR
STARTCHAR RCeiling3
ENCODING 114
SWIDTH 411 0
DWIDTH 6 0
BBX 4 23 1 -8
BITMAP
f0
f0
30
30
30
30
30
30
30
30
30
30
30
30
30
30
30
30
30
30
30
30
30
ENDCHAR
STARTCHAR RCeiling4
ENCODING 115
SWIDTH 411 0
DWIDTH 6 0
BBX 4 29 1 -11
BITMAP
f0
f0
30
30
30
30
30
30
30
30
30
30
30
30
30
30
30
30
30
30
30
30
30
30
30
30
30
30
30
ENDCHAR
STARTCHAR RFloor1
ENCODING 116
SWIDTH 411 0
DWIDTH 6 0
BBX 4 12 1 -2
BITMAP
30
30
30
30
30
30
30
30
30
30
f0
f0
ENDCHAR
STARTCHAR RFloor2
ENCODING 117
SWIDTH 411 0
DWIDTH 6 0
BBX 4 18 1 -5
BITMAP
30
30
30
30
30
30
30
30
30
30
30
30
30
30
30
30
f0
f0
ENDCHAR
STARTCHAR RFloor3
ENCODING 118
SWIDTH 411 0
DWIDTH 6 0
BBX 4 24 1 -8
BITMAP
30
30
30
30
30
30
30
30
30
30
30
30
30
30
30
30
30
30
30
30
30
30
f0
f0
ENDCHAR
STARTCHAR RFloor4
ENCODING 119
SWIDTH 411 0
DWIDTH 6 0
BBX 4 30 1 -11
BITMAP
30
30
30
30
30
30
30
30
30
30
30
30
30
30
30
30
30
30
30
30
30
30
30
30
30
30
30
30
f0
f0
ENDCHAR
STARTCHAR RFlrClngExtens
ENCODING 120
SWIDTH 411 0
DWIDTH 6 0
BBX 2 6 3 -1
BITMAP
c0
c0
c0
c0
c0
c0
ENDCHAR
STARTCHAR RParenTop
ENCODING 121
SWIDTH 421 0
DWIDTH 6 0
BBX 5 12 0 -1
BITMAP
80
40
20
30
30
10
18
18
18
18
18
18
ENDCHAR
STARTCHAR RParenExtens
ENCODING 122
SWIDTH 421 0
DWIDTH 6 0
BBX 2 6 3 -1
BITMAP
c0
c0
c0
c0
c0
c0
ENDCHAR
STARTCHAR RParenBottom
ENCODING 123
SWIDTH 421 0
DWIDTH 6 0
BBX 5 12 0 0
BITMAP
18
18
18
18
18
18
10
30
30
20
40
80
ENDCHAR
STARTCHAR RBraceTop
ENCODING 124
SWIDTH 597 0
DWIDTH 8 0
BBX 4 10 1 -1
BITMAP
80
40
60
20
30
30
30
30
30
30
ENDCHAR
STARTCHAR RBraceMiddle
ENCODING 125
SWIDTH 597 0
DWIDTH 8 0
BBX 5 11 3 -2
BITMAP
c0
c0
c0
60
30
18
30
60
c0
c0
c0
ENDCHAR
STARTCHAR RBraceBottom
ENCODING 126
SWIDTH 597 0
DWIDTH 8 0
BBX 4 10 1 0
BITMAP
30
30
30
30
30
30
20
60
40
80
ENDCHAR
STARTCHAR LBracketTop
ENCODING 128
SWIDTH 389 0
DWIDTH 5 0
BBX 4 3 1 -1
BITMAP
f0
c0
c0
ENDCHAR
STARTCHAR LBracketExtens
ENCODING 129
SWIDTH 389 0
DWIDTH 5 0
BBX 2 6 1 -1
BITMAP
c0
c0
c0
c0
c0
c0
ENDCHAR
STARTCHAR LBracketBottom
ENCODING 130
SWIDTH 389 0
DWIDTH 5 0
BBX 4 3 1 0
BITMAP
c0
c0
f0
ENDCHAR
STARTCHAR RBracketTop
ENCODING 131
SWIDTH 389 0
DWIDTH 5 0
BBX 4 3 0 -1
BITMAP
f0
30
30
ENDCHAR
STARTCHAR RBracketExtens
ENCODING 132
SWIDTH 389 0
DWIDTH 5 0
BBX 2 6 2 -1
BITMAP
c0
c0
c0
c0
c0
c0
ENDCHAR
STARTCHAR RBracketBottom
ENCODING 133
SWIDTH 389 0
DWIDTH 5 0
BBX 4 3 0 0
BITMAP
30
30
f0
ENDCHAR
STARTCHAR DblLBracketBottom
ENCODING 134
SWIDTH 514 0
DWIDTH 7 0
BBX 6 3 1 0
BITMAP
b0
b0
fc
ENDCHAR
STARTCHAR DblLBracketExtens
ENCODING 135
SWIDTH 514 0
DWIDTH 7 0
BBX 4 6 1 -1
BITMAP
b0
b0
b0
b0
b0
b0
ENDCHAR
STARTCHAR DblLBracketTop
ENCODING 136
SWIDTH 514 0
DWIDTH 7 0
BBX 6 3 1 -1
BITMAP
fc
b0
b0
ENDCHAR
STARTCHAR DblRBracketBottom
ENCODING 137
SWIDTH 514 0
DWIDTH 7 0
BBX 6 3 0 0
BITMAP
34
34
fc
ENDCHAR
STARTCHAR DblRBracketExtens
ENCODING 138
SWIDTH 514 0
DWIDTH 7 0
BBX 4 6 2 -1
BITMAP
d0
d0
d0
d0
d0
d0
ENDCHAR
STARTCHAR DblRBracketTop
ENCODING 139
SWIDTH 514 0
DWIDTH 7 0
BBX 6 3 0 -1
BITMAP
fc
34
34
ENDCHAR
STARTCHAR LeftHook
ENCODING 140
SWIDTH 230 0
DWIDTH 3 0
BBX 3 12 0 0
BITMAP
e0
e0
c0
c0
c0
c0
c0
c0
c0
c0
c0
c0
ENDCHAR
STARTCHAR HookExt
ENCODING 141
SWIDTH 200 0
DWIDTH 3 0
BBX 3 2 0 10
BITMAP
e0
e0
ENDCHAR
STARTCHAR RightHook
ENCODING 142
SWIDTH 230 0
DWIDTH 3 0
BBX 3 12 0 0
BITMAP
e0
e0
60
60
60
60
60
60
60
60
60
60
ENDCHAR
STARTCHAR Radical1
ENCODING 143
SWIDTH 855 0
DWIDTH 12 0
BBX 13 15 0 -11
BITMAP
0038
0020
0020
0040
0040
1040
3840
5880
8c80
0c80
0700
0700
0700
0300
0200
ENDCHAR
STARTCHAR Slash1
ENCODING 144
SWIDTH 358 0
DWIDTH 5 0
BBX 6 12 0 -2
BITMAP
0c
1c
18
18
38
30
30
70
60
60
e0
c0
ENDCHAR
STARTCHAR Slash2
ENCODING 145
SWIDTH 493 0
DWIDTH 7 0
BBX 8 18 0 -5
BITMAP
03
07
06
06
0e
0c
0c
1c
18
18
38
30
30
70
60
60
e0
c0
ENDCHAR
STARTCHAR Slash3
ENCODING 146
SWIDTH 632 0
DWIDTH 9 0
BBX 10 23 0 -8
BITMAP
00c0
01c0
0180
0180
0380
0300
0300
0700
0600
0600
0c00
0c00
0c00
1800
1800
1800
3000
3000
3000
6000
6000
6000
c000
ENDCHAR
STARTCHAR Slash4
ENCODING 147
SWIDTH 757 0
DWIDTH 11 0
BBX 11 29 0 -11
BITMAP
0060
0060
00c0
00c0
00c0
0180
0180
0180
0300
0300
0300
0700
0600
0600
0e00
0c00
0c00
0c00
1800
1800
1800
3000
3000
3000
6000
6000
6000
e000
c000
ENDCHAR
STARTCHAR BackSlash1
ENCODING 148
SWIDTH 358 0
DWIDTH 5 0
BBX 6 12 0 -2
BITMAP
c0
e0
60
60
70
30
30
38
18
18
1c
0c
ENDCHAR
STARTCHAR BackSlash2
ENCODING 149
SWIDTH 493 0
DWIDTH 7 0
BBX 8 18 0 -5
BITMAP
c0
e0
60
60
70
30
30
38
18
18
1c
0c
0c
0e
06
06
07
03
ENDCHAR
STARTCHAR BackSlash3
ENCODING 150
SWIDTH 632 0
DWIDTH 9 0
BBX 10 23 0 -8
BITMAP
c000
6000
6000
6000
3000
3000
3000
1800
1800
1800
0c00
0c00
0c00
0600
0600
0700
0300
0300
0380
0180
0180
01c0
00c0
ENDCHAR
STARTCHAR BackSlash4
ENCODING 151
SWIDTH 757 0
DWIDTH 11 0
BBX 11 29 0 -11
BITMAP
c000
e000
6000
6000
6000
3000
3000
3000
1800
1800
1800
0c00
0c00
0c00
0e00
0600
0600
0700
0300
0300
0300
0180
0180
0180
00c0
00c0
00c0
0060
0060
ENDCHAR
STARTCHAR ContourIntegral
ENCODING 152
SWIDTH 430 0
DWIDTH 6 0
BBX 10 17 0 -3
BITMAP
03c0
06c0
0400
0c00
0c00
0c00
1e00
2d00
2d00
2d00
2d00
1e00
0c00
0c00
0800
d800
f000
ENDCHAR
STARTCHAR DblContInteg
ENCODING 153
SWIDTH 779 0
DWIDTH 11 0
BBX 15 17 0 -3
BITMAP
03de
06f6
0420
0c60
0c60
0c60
1ff0
2c68
2c68
2c68
2c68
1ff0
0c60
0c60
0840
db40
f380
ENDCHAR
STARTCHAR CntrClckwContInteg
ENCODING 154
SWIDTH 430 0
DWIDTH 6 0
BBX 10 17 0 -3
BITMAP
03c0
06c0
0400
0c00
0c00
0c00
1e00
2d00
2d00
2f80
2d00
1e00
0c00
0c00
0800
d800
f000
ENDCHAR
STARTCHAR ClckwContInteg
ENCODING 155
SWIDTH 430 0
DWIDTH 6 0
BBX 10 17 0 -3
BITMAP
03c0
06c0
0400
0c00
0c00
0c00
1e00
2d00
2d00
7d00
2d00
1e00
0c00
0c00
0800
d800
f000
ENDCHAR
STARTCHAR SquareContInteg
ENCODING 156
SWIDTH 430 0
DWIDTH 6 0
BBX 10 17 0 -3
BITMAP
03c0
06c0
0400
0c00
0c00
0c00
3f00
2d00
2d00
2d00
2d00
3f00
0c00
0c00
0800
d800
f000
ENDCHAR
STARTCHAR UnionPlus
ENCODING 157
SWIDTH 893 0
DWIDTH 13 0
BBX 11 12 1 -2
BITMAP
c060
c060
c060
c060
c660
c660
dfe0
dfe0
e6e0
77c0
7fc0
1f00
ENDCHAR
STARTCHAR SquareIntersection
ENCODING 158
SWIDTH 893 0
DWIDTH 13 0
BBX 11 12 1 -2
BITMAP
ffe0
ffe0
c060
c060
c060
c060
c060
c060
c060
c060
c060
c060
ENDCHAR
STARTCHAR SquareUnion
ENCODING 159
SWIDTH 893 0
DWIDTH 13 0
BBX 11 12 1 -2
BITMAP
c060
c060
c060
c060
c060
c060
c060
c060
c060
c060
ffe0
ffe0
ENDCHAR
STARTCHAR LBracketBar1
ENCODING 160
SWIDTH 272 0
DWIDTH 4 0
BBX 2 12 1 -2
BITMAP
c0
c0
c0
c0
c0
c0
c0
c0
c0
c0
c0
c0
ENDCHAR
STARTCHAR LBracketBar2
ENCODING 161
SWIDTH 272 0
DWIDTH 4 0
BBX 2 18 1 -5
BITMAP
c0
c0
c0
c0
c0
c0
c0
c0
c0
c0
c0
c0
c0
c0
c0
c0
c0
c0
ENDCHAR
STARTCHAR LBracketBar3
ENCODING 162
SWIDTH 272 0
DWIDTH 4 0
BBX 2 23 1 -8
BITMAP
c0
c0
c0
c0
c0
c0
c0
c0
c0
c0
c0
c0
c0
c0
c0
c0
c0
c0
c0
c0
c0
c0
c0
ENDCHAR
STARTCHAR LBracketBar4
ENCODING 163
SWIDTH 272 0
DWIDTH 4 0
BBX 2 29 1 -11
BITMAP
c0
c0
c0
c0
c0
c0
c0
c0
c0
c0
c0
c0
c0
c0
c0
c0
c0
c0
c0
c0
c0
c0
c0
c0
c0
c0
c0
c0
c0
ENDCHAR
STARTCHAR RBracketBar1
ENCODING 164
SWIDTH 272 0
DWIDTH 4 0
BBX 2 12 1 -2
BITMAP
c0
c0
c0
c0
c0
c0
c0
c0
c0
c0
c0
c0
ENDCHAR
STARTCHAR RBracketBar2
ENCODING 165
SWIDTH 272 0
DWIDTH 4 0
BBX 2 18 1 -5
BITMAP
c0
c0
c0
c0
c0
c0
c0
c0
c0
c0
c0
c0
c0
c0
c0
c0
c0
c0
ENDCHAR
STARTCHAR RBracketBar3
ENCODING 166
SWIDTH 272 0
DWIDTH 4 0
BBX 2 23 1 -8
BITMAP
c0
c0
c0
c0
c0
c0
c0
c0
c0
c0
c0
c0
c0
c0
c0
c0
c0
c0
c0
c0
c0
c0
c0
ENDCHAR
STARTCHAR RBracketBar4
ENCODING 167
SWIDTH 272 0
DWIDTH 4 0
BBX 2 29 1 -11
BITMAP
c0
c0
c0
c0
c0
c0
c0
c0
c0
c0
c0
c0
c0
c0
c0
c0
c0
c0
c0
c0
c0
c0
c0
c0
c0
c0
c0
c0
c0
ENDCHAR
STARTCHAR ContourIntegral2
ENCODING 168
SWIDTH 681 0
DWIDTH 10 0
BBX 15 31 1 -9
BITMAP
003c
0066
00c6
01c0
01c0
01c0
0180
0380
0380
0380
0fc0
1ff0
3bb8
3398
638c
638c
638c
638c
3398
3bb8
1ff0
07e0
0380
0380
0380
0300
0300
0700
c600
ce00
7800
ENDCHAR
STARTCHAR DblContInteg2
ENCODING 169
SWIDTH 1291 0
DWIDTH 18 0
BBX 24 31 1 -9
BITMAP
003c1e
006633
00c663
01c0e0
01c0e0
0180e0
0180c0
0381c0
0381c0
0381c0
0fffe0
1ffff8
3b81dc
3381cc
6381c6
6381c6
6381c6
6381c6
3381cc
3b81dc
1ffff8
07fff0
0381c0
0381c0
0381c0
030180
030180
070380
c66300
ce6700
783c00
ENDCHAR
STARTCHAR CntrClckwContInteg2
ENCODING 170
SWIDTH 681 0
DWIDTH 10 0
BBX 16 31 1 -9
BITMAP
003c
0066
00c6
01c0
01c0
01c0
0180
0380
0380
0380
0fc0
1ff0
3bb8
339c
638c
638c
639e
63ad
3398
3bb8
1ff0
07e0
0380
0380
0380
0300
0300
0700
c600
ce00
7800
ENDCHAR
STARTCHAR ClckwContInteg2
ENCODING 171
SWIDTH 681 0
DWIDTH 10 0
BBX 16 31 0 -9
BITMAP
001e
0033
0063
00e0
00e0
00e0
00c0
01c0
01c0
01c0
07e0
0ff8
1ddc
39cc
31c6
31c6
79c6
b5c6
19cc
1ddc
0ff8
03f0
01c0
01c0
01c0
0180
0180
0380
6300
6700
3c00
ENDCHAR
STARTCHAR SquareContInteg2
ENCODING 172
SWIDTH 681 0
DWIDTH 10 0
BBX 15 31 1 -9
BITMAP
003c
0066
00c6
00c0
01c0
01c0
0180
0380
0380
0380
0380
3ff8
3ff8
3398
3398
3398
3398
3398
3398
3398
3ff8
3ff8
0380
0380
0380
0300
0300
0700
c600
ce00
7800
ENDCHAR
STARTCHAR UnionPlus2
ENCODING 173
SWIDTH 1295 0
DWIDTH 18 0
BBX 16 21 1 -6
BITMAP
c003
c003
c003
c003
c003
c003
c003
c003
c003
c183
c183
c183
dffb
dffb
c183
c183
6186
700e
381c
1ff8
07e0
ENDCHAR
STARTCHAR SquareIntersection2
ENCODING 174
SWIDTH 1295 0
DWIDTH 18 0
BBX 16 21 1 -6
BITMAP
ffff
ffff
c003
c003
c003
c003
c003
c003
c003
c003
c003
c003
c003
c003
c003
c003
c003
c003
c003
c003
c003
ENDCHAR
STARTCHAR SquareUnion2
ENCODING 175
SWIDTH 1295 0
DWIDTH 18 0
BBX 16 21 1 -6
BITMAP
c003
c003
c003
c003
c003
c003
c003
c003
c003
c003
c003
c003
c003
c003
c003
c003
c003
c003
c003
ffff
ffff
ENDCHAR
STARTCHAR DblLBracketBar1
ENCODING 176
SWIDTH 516 0
DWIDTH 7 0
BBX 5 12 1 -2
BITMAP
d8
d8
d8
d8
d8
d8
d8
d8
d8
d8
d8
d8
ENDCHAR
STARTCHAR DblLBracketBar2
ENCODING 177
SWIDTH 516 0
DWIDTH 7 0
BBX 5 18 1 -5
BITMAP
d8
d8
d8
d8
d8
d8
d8
d8
d8
d8
d8
d8
d8
d8
d8
d8
d8
d8
ENDCHAR
STARTCHAR DblLBracketBar3
ENCODING 178
SWIDTH 516 0
DWIDTH 7 0
BBX 5 23 1 -8
BITMAP
d8
d8
d8
d8
d8
d8
d8
d8
d8
d8
d8
d8
d8
d8
d8
d8
d8
d8
d8
d8
d8
d8
d8
ENDCHAR
STARTCHAR DblLBracketBar4
ENCODING 179
SWIDTH 516 0
DWIDTH 7 0
BBX 5 29 1 -11
BITMAP
d8
d8
d8
d8
d8
d8
d8
d8
d8
d8
d8
d8
d8
d8
d8
d8
d8
d8
d8
d8
d8
d8
d8
d8
d8
d8
d8
d8
d8
ENDCHAR
STARTCHAR DblRBracketBar1
ENCODING 180
SWIDTH 516 0
DWIDTH 7 0
BBX 5 12 1 -2
BITMAP
d8
d8
d8
d8
d8
d8
d8
d8
d8
d8
d8
d8
ENDCHAR
STARTCHAR DblRBracketBar2
ENCODING 181
SWIDTH 516 0
DWIDTH 7 0
BBX 5 18 1 -5
BITMAP
d8
d8
d8
d8
d8
d8
d8
d8
d8
d8
d8
d8
d8
d8
d8
d8
d8
d8
ENDCHAR
STARTCHAR DblRBracketBar3
ENCODING 182
SWIDTH 516 0
DWIDTH 7 0
BBX 5 23 1 -8
BITMAP
d8
d8
d8
d8
d8
d8
d8
d8
d8
d8
d8
d8
d8
d8
d8
d8
d8
d8
d8
d8
d8
d8
d8
ENDCHAR
STARTCHAR DblRBracketBar4
ENCODING 183
SWIDTH 516 0
DWIDTH 7 0
BBX 5 29 1 -11
BITMAP
d8
d8
d8
d8
d8
d8
d8
d8
d8
d8
d8
d8
d8
d8
d8
d8
d8
d8
d8
d8
d8
d8
d8
d8
d8
d8
d8
d8
d8
ENDCHAR
STARTCHAR ContourIntegral3
ENCODING 184
SWIDTH 968 0
DWIDTH 14 0
BBX 21 46 1 -16
BITMAP
0001e0
000638
000c38
000c18
001c00
001800
003800
003800
003800
003000
007000
007000
007000
007000
007000
01fc00
07fe00
0e7780
0c7180
1870c0
3870c0
307060
307060
307060
307060
307060
3870e0
1870c0
0c7180
0f7380
03ff00
01fc00
007000
007000
007000
007000
006000
006000
006000
00e000
00e000
00c000
c1c000
e18000
e30000
3e0000
ENDCHAR
STARTCHAR DblContInteg3
ENCODING 185
SWIDTH 1887 0
DWIDTH 26 0
BBX 34 46 1 -16
BITMAP
0001e00f00
00063831c0
000e3871c0
000c1860c0
001c00e000
001800c000
003801c000
003801c000
003801c000
0030018000
0030038000
0070038000
0070038000
0070038000
0070038000
01ffffc000
07fffff000
0f7003b800
0c70038c00
1870038600
3870038600
3070038300
3070038300
3070038300
3070038300
3070038300
1870038700
1870038600
0c70038c00
077003bc00
03fffff800
00ffffe000
0070038000
0070038000
0070038000
0070038000
0060030000
0060030000
00e0070000
00e0070000
00e0070000
00c0060000
c1c60e0000
e1870c0000
e307180000
3e01f00000
ENDCHAR
STARTCHAR CntrClckwContInteg3
ENCODING 186
SWIDTH 968 0
DWIDTH 14 0
BBX 22 46 1 -16
BITMAP
0001e0
000638
000c38
000c18
001c00
001800
003800
003800
003800
003000
007000
007000
007000
007000
007000
01fc00
07fe00
0e7780
0c71c0
1870c0
387060
307060
307060
3070f0
307168
307264
3870c0
1870c0
0c7180
0f7780
03ff00
01fc00
007000
007000
007000
007000
006000
006000
006000
00e000
00e000
00c000
c1c000
e18000
e30000
3e0000
ENDCHAR
STARTCHAR ClckwContInteg3
ENCODING 187
SWIDTH 968 0
DWIDTH 14 0
BBX 22 46 0 -16
BITMAP
0000f0
00031c
00061c
00060c
000e00
000c00
001c00
001c00
001c00
001800
003800
003800
003800
003800
003800
00fe00
03ff00
073bc0
0638c0
0c3860
0c3860
183830
183830
3c3830
5a3830
993830
1c3870
0c3860
0638c0
07b9c0
01ff80
00fe00
003800
003800
003800
003800
003000
003000
007000
007000
007000
006000
60e000
70c000
718000
1f0000
ENDCHAR
STARTCHAR SquareContInteg3
ENCODING 188
SWIDTH 968 0
DWIDTH 14 0
BBX 21 46 1 -16
BITMAP
0001e0
000638
000e38
000c18
001c00
001800
003800
003800
003800
003800
003000
007000
007000
007000
007000
007000
1fffc0
1fffc0
1870c0
1870c0
1870c0
1870c0
1870c0
1870c0
1870c0
1870c0
1870c0
1870c0
1870c0
1870c0
1fffc0
1fffc0
007000
007000
007000
007000
006000
006000
006000
00e000
00e000
00c000
c1c000
e18000
e30000
3e0000
ENDCHAR
STARTCHAR UnionPlus3
ENCODING 189
SWIDTH 1988 0
DWIDTH 28 0
BBX 25 32 2 -11
BITMAP
c0000180
c0000180
c0000180
c0000180
c0000180
c0000180
c0000180
c0000180
c0000180
c0000180
c0000180
c0000180
c00c0180
c00c0180
c00c0180
c00c0180
c00c0180
c00c0180
c00c0180
c7fff980
c7fff980
c00c0180
c00c0380
600c0300
600c0300
300c0600
380c0e00
1c001c00
0e003800
0781f000
01ffc000
007f0000
ENDCHAR
STARTCHAR SquareIntersection3
ENCODING 190
SWIDTH 2064 0
DWIDTH 29 0
BBX 25 32 2 -11
BITMAP
ffffff80
ffffff80
c0000180
c0000180
c0000180
c0000180
c0000180
c0000180
c0000180
c0000180
c0000180
c0000180
c0000180
c0000180
c0000180
c0000180
c0000180
c0000180
c0000180
c0000180
c0000180
c0000180
c0000180
c0000180
c0000180
c0000180
c0000180
c0000180
c0000180
c0000180
c0000180
c0000180
ENDCHAR
STARTCHAR SquareUnion3
ENCODING 191
SWIDTH 2064 0
DWIDTH 29 0
BBX 25 32 2 -11
BITMAP
c0000180
c0000180
c0000180
c0000180
c0000180
c0000180
c0000180
c0000180
c0000180
c0000180
c0000180
c0000180
c0000180
c0000180
c0000180
c0000180
c0000180
c0000180
c0000180
c0000180
c0000180
c0000180
c0000180
c0000180
c0000180
c0000180
c0000180
c0000180
c0000180
c0000180
ffffff80
ffffff80
ENDCHAR
STARTCHAR DblBar1
ENCODING 192
SWIDTH 516 0
DWIDTH 7 0
BBX 5 12 1 -2
BITMAP
d8
d8
d8
d8
d8
d8
d8
d8
d8
d8
d8
d8
ENDCHAR
STARTCHAR DblBar2
ENCODING 193
SWIDTH 516 0
DWIDTH 7 0
BBX 5 18 1 -5
BITMAP
d8
d8
d8
d8
d8
d8
d8
d8
d8
d8
d8
d8
d8
d8
d8
d8
d8
d8
ENDCHAR
STARTCHAR DblBar3
ENCODING 194
SWIDTH 516 0
DWIDTH 7 0
BBX 5 23 1 -8
BITMAP
d8
d8
d8
d8
d8
d8
d8
d8
d8
d8
d8
d8
d8
d8
d8
d8
d8
d8
d8
d8
d8
d8
d8
ENDCHAR
STARTCHAR DblBar4
ENCODING 195
SWIDTH 516 0
DWIDTH 7 0
BBX 5 29 1 -11
BITMAP
d8
d8
d8
d8
d8
d8
d8
d8
d8
d8
d8
d8
d8
d8
d8
d8
d8
d8
d8
d8
d8
d8
d8
d8
d8
d8
d8
d8
d8
ENDCHAR
STARTCHAR BarExt
ENCODING 196
SWIDTH 272 0
DWIDTH 4 0
BBX 2 6 1 -1
BITMAP
c0
c0
c0
c0
c0
c0
ENDCHAR
STARTCHAR DblBarExt
ENCODING 197
SWIDTH 516 0
DWIDTH 7 0
BBX 5 6 1 -1
BITMAP
d8
d8
d8
d8
d8
d8
ENDCHAR
STARTCHAR OverCircle
ENCODING 198
SWIDTH 267 0
DWIDTH 4 0
BBX 4 4 0 0
BITMAP
60
90
90
60
ENDCHAR
STARTCHAR Hacek
ENCODING 199
SWIDTH 371 0
DWIDTH 5 0
BBX 5 3 0 1
BITMAP
88
70
20
ENDCHAR
STARTCHAR VertBar1
ENCODING 200
SWIDTH 272 0
DWIDTH 4 0
BBX 2 12 1 -2
BITMAP
c0
c0
c0
c0
c0
c0
c0
c0
c0
c0
c0
c0
ENDCHAR
STARTCHAR VertBar2
ENCODING 201
SWIDTH 272 0
DWIDTH 4 0
BBX 2 18 1 -5
BITMAP
c0
c0
c0
c0
c0
c0
c0
c0
c0
c0
c0
c0
c0
c0
c0
c0
c0
c0
ENDCHAR
STARTCHAR Nbspace
ENCODING 202
SWIDTH 189 0
DWIDTH 3 0
BBX 0 0 0 0
BITMAP
ENDCHAR
STARTCHAR VertBar3
ENCODING 203
SWIDTH 272 0
DWIDTH 4 0
BBX 2 23 1 -8
BITMAP
c0
c0
c0
c0
c0
c0
c0
c0
c0
c0
c0
c0
c0
c0
c0
c0
c0
c0
c0
c0
c0
c0
c0
ENDCHAR
STARTCHAR VertBar4
ENCODING 204
SWIDTH 272 0
DWIDTH 4 0
BBX 2 29 1 -11
BITMAP
c0
c0
c0
c0
c0
c0
c0
c0
c0
c0
c0
c0
c0
c0
c0
c0
c0
c0
c0
c0
c0
c0
c0
c0
c0
c0
c0
c0
c0
ENDCHAR
STARTCHAR FIntegral
ENCODING 205
SWIDTH 430 0
DWIDTH 6 0
BBX 9 17 1 -3
BITMAP
0780
0d80
0800
1800
1800
1800
1e00
3c00
d800
1800
1800
1800
1800
1800
1800
d000
e000
ENDCHAR
STARTCHAR FIntegral2
ENCODING 206
SWIDTH 681 0
DWIDTH 10 0
BBX 15 31 1 -9
BITMAP
003c
0066
00c6
00c0
01c0
01c0
0180
0180
0380
0380
0380
0398
03e0
0f80
3380
0380
0380
0380
0380
0380
0380
0380
0380
0380
0380
0300
0300
0700
c600
ce00
7800
ENDCHAR
STARTCHAR FIntegral3
ENCODING 207
SWIDTH 968 0
DWIDTH 14 0
BBX 21 46 1 -16
BITMAP
0001e0
000638
000638
000c18
001c00
001800
001800
003800
003800
003800
003000
003000
007000
007000
007000
007000
0070c0
007780
007c00
01f000
0f7000
187000
007000
007000
007000
007000
007000
007000
007000
007000
007000
007000
007000
007000
007000
007000
007000
006000
00e000
00e000
00e000
00c000
c1c000
e18000
e30000
3e0000
ENDCHAR
STARTCHAR OverDoubleDot
ENCODING 208
SWIDTH 360 0
DWIDTH 5 0
BBX 5 2 0 1
BITMAP
d8
d8
ENDCHAR
STARTCHAR OverTripleDot
ENCODING 209
SWIDTH 579 0
DWIDTH 8 0
BBX 8 2 0 1
BITMAP
db
db
ENDCHAR
STARTCHAR OverLVector
ENCODING 210
SWIDTH 467 0
DWIDTH 7 0
BBX 7 3 0 1
BITMAP
20
40
fe
ENDCHAR
STARTCHAR OverRVector
ENCODING 211
SWIDTH 467 0
DWIDTH 7 0
BBX 7 2 0 1
BITMAP
04
fe
ENDCHAR
STARTCHAR OverLRVector
ENCODING 212
SWIDTH 650 0
DWIDTH 9 0
BBX 9 3 0 1
BITMAP
2200
4100
ff80
ENDCHAR
STARTCHAR OverLArrow
ENCODING 213
SWIDTH 428 0
DWIDTH 6 0
BBX 6 5 0 -1
BITMAP
20
40
fc
40
20
ENDCHAR
STARTCHAR OverArrowVectExt
ENCODING 214
SWIDTH 200 0
DWIDTH 3 0
BBX 3 1 0 1
BITMAP
e0
ENDCHAR
STARTCHAR OverRArrow
ENCODING 215
SWIDTH 428 0
DWIDTH 6 0
BBX 6 5 0 -1
BITMAP
10
08
fc
08
10
ENDCHAR
STARTCHAR OverLRArrow
ENCODING 216
SWIDTH 572 0
DWIDTH 8 0
BBX 8 5 0 -1
BITMAP
24
42
ff
42
24
ENDCHAR
STARTCHAR Integral
ENCODING 217
SWIDTH 430 0
DWIDTH 6 0
BBX 9 17 1 -3
BITMAP
0780
0d80
0800
1800
1800
1800
1800
1800
1800
1800
1800
1800
1800
1800
1800
d000
e000
ENDCHAR
STARTCHAR Summation
ENCODING 218
SWIDTH 842 0
DWIDTH 12 0
BBX 10 12 1 -2
BITMAP
ffc0
60c0
3040
3840
1c00
0c00
0c00
0800
1040
20c0
7fc0
ffc0
ENDCHAR
STARTCHAR Product
ENCODING 219
SWIDTH 951 0
DWIDTH 13 0
BBX 11 12 1 -2
BITMAP
ffe0
60c0
60c0
60c0
60c0
60c0
60c0
60c0
60c0
60c0
60c0
f1e0
ENDCHAR
STARTCHAR Intersection
ENCODING 220
SWIDTH 893 0
DWIDTH 13 0
BBX 11 12 1 -2
BITMAP
c060
c060
c060
c060
c060
c060
c060
c060
e0e0
71c0
7fc0
1f00
ENDCHAR
STARTCHAR Union
ENCODING 221
SWIDTH 893 0
DWIDTH 13 0
BBX 11 12 1 -2
BITMAP
1f00
7fc0
71c0
e0e0
c060
c060
c060
c060
c060
c060
c060
c060
ENDCHAR
STARTCHAR LogicalOr
ENCODING 222
SWIDTH 669 0
DWIDTH 9 0
BBX 9 9 0 0
BITMAP
c180
4100
6300
2200
2200
3600
1400
1c00
0800
ENDCHAR
STARTCHAR LogicalAnd
ENCODING 223
SWIDTH 669 0
DWIDTH 9 0
BBX 9 9 0 0
BITMAP
0800
1c00
1400
3600
2200
2200
6300
4100
c180
ENDCHAR
STARTCHAR Integral1
ENCODING 224
SWIDTH 681 0
DWIDTH 10 0
BBX 15 31 1 -9
BITMAP
003c
0066
00e6
01c0
01c0
01c0
0180
0380
0380
0380
0380
0380
0380
0380
0380
0380
0380
0380
0380
0380
0380
0380
0380
0380
0380
0300
0300
0700
c600
ce00
7800
ENDCHAR
STARTCHAR Integral2
ENCODING 225
SWIDTH 968 0
DWIDTH 14 0
BBX 21 46 1 -16
BITMAP
0001e0
000638
000e38
000c18
001c00
001800
003800
003800
003800
003800
003000
007000
007000
007000
007000
007000
007000
007000
007000
007000
007000
007000
007000
007000
007000
007000
007000
007000
007000
007000
007000
007000
007000
007000
007000
007000
007000
006000
00e000
00e000
00e000
00c000
c1c000
e18000
e30000
3e0000
ENDCHAR
STARTCHAR Sum1
ENCODING 226
SWIDTH 1351 0
DWIDTH 19 0
BBX 17 21 1 -6
BITMAP
7fff00
300300
180300
0c0100
060100
030000
030000
018000
00c000
006000
003000
006000
00c000
018000
030080
060080
0c0180
180180
300380
7fff80
ffff80
ENDCHAR
STARTCHAR Sum2
ENCODING 227
SWIDTH 1918 0
DWIDTH 27 0
BBX 25 32 1 -11
BITMAP
7fffff00
3fffff00
18000700
1c000300
0e000300
06000300
03000100
03800100
01c00000
00c00000
00e00000
00700000
00300000
00380000
001c0000
000e0000
00040000
00080000
00100000
00300000
00600000
00400000
00800000
01000000
02000080
06000080
0c000180
08000180
10000380
20000780
7fffff80
ffffff80
ENDCHAR
STARTCHAR Product1
ENCODING 228
SWIDTH 1361 0
DWIDTH 19 0
BBX 18 21 0 -6
BITMAP
ffffc0
300300
300300
300300
300300
300300
300300
300300
300300
300300
300300
300300
300300
300300
300300
300300
300300
300300
300300
300300
fc0fc0
ENDCHAR
STARTCHAR Product2
ENCODING 229
SWIDTH 1883 0
DWIDTH 26 0
BBX 24 32 1 -11
BITMAP
ffffff
30000c
30000c
30000c
30000c
30000c
30000c
30000c
30000c
30000c
30000c
30000c
30000c
30000c
30000c
30000c
30000c
30000c
30000c
30000c
30000c
30000c
30000c
30000c
30000c
30000c
30000c
30000c
30000c
30000c
30000c
fc003f
ENDCHAR
STARTCHAR Union1
ENCODING 230
SWIDTH 1295 0
DWIDTH 18 0
BBX 16 21 1 -6
BITMAP
c003
c003
c003
c003
c003
c003
c003
c003
c003
c003
c003
c003
c003
c003
c003
e007
6006
700e
381c
1ff8
07e0
ENDCHAR
STARTCHAR Union2
ENCODING 231
SWIDTH 2064 0
DWIDTH 29 0
BBX 25 32 2 -11
BITMAP
c0000180
c0000180
c0000180
c0000180
c0000180
c0000180
c0000180
c0000180
c0000180
c0000180
c0000180
c0000180
c0000180
c0000180
c0000180
c0000180
c0000180
c0000180
c0000180
c0000180
c0000180
c0000180
c0000380
60000300
60000300
30000600
38000e00
1c001c00
0e003800
0781f000
01ffc000
007f0000
ENDCHAR
STARTCHAR Intersect1
ENCODING 232
SWIDTH 1295 0
DWIDTH 18 0
BBX 16 21 1 -6
BITMAP
07e0
1ff8
381c
700e
6006
e007
c003
c003
c003
c003
c003
c003
c003
c003
c003
c003
c003
c003
c003
c003
c003
ENDCHAR
STARTCHAR Intersect2
ENCODING 233
SWIDTH 2064 0
DWIDTH 29 0
BBX 25 32 2 -11
BITMAP
007f0000
01ffc000
0781f000
0e003800
1c001c00
38000e00
30000600
60000300
60000300
c0000380
c0000180
c0000180
c0000180
c0000180
c0000180
c0000180
c0000180
c0000180
c0000180
c0000180
c0000180
c0000180
c0000180
c0000180
c0000180
c0000180
c0000180
c0000180
c0000180
c0000180
c0000180
c0000180
ENDCHAR
STARTCHAR Or1
ENCODING 234
SWIDTH 840 0
DWIDTH 12 0
BBX 11 12 0 -2
BITMAP
c060
4040
60c0
60c0
2080
3180
1100
1b00
0a00
0a00
0e00
0400
ENDCHAR
STARTCHAR Or2
ENCODING 235
SWIDTH 1256 0
DWIDTH 18 0
BBX 17 21 0 -6
BITMAP
c00180
400100
600300
600300
300600
300600
300600
180c00
180c00
080800
0c1800
0c1800
041000
063000
022000
036000
036000
014000
01c000
01c000
008000
ENDCHAR
STARTCHAR And1
ENCODING 236
SWIDTH 840 0
DWIDTH 12 0
BBX 11 12 0 -2
BITMAP
0400
0e00
0a00
0a00
1b00
1100
3180
2080
60c0
60c0
4040
c060
ENDCHAR
STARTCHAR And2
ENCODING 237
SWIDTH 1256 0
DWIDTH 18 0
BBX 17 21 0 -6
BITMAP
008000
01c000
01c000
014000
036000
036000
022000
063000
041000
0c1800
0c1800
080800
180c00
180c00
300600
300600
300600
600300
600300
400100
c00180
ENDCHAR
STARTCHAR SmallVee
ENCODING 238
SWIDTH 660 0
DWIDTH 9 0
BBX 7 5 1 1
BITMAP
c6
44
6c
38
10
ENDCHAR
STARTCHAR SmallWedge
ENCODING 239
SWIDTH 660 0
DWIDTH 9 0
BBX 7 5 1 1
BITMAP
10
38
6c
44
c6
ENDCHAR
STARTCHAR DoubleGrave
ENCODING 240
SWIDTH 467 0
DWIDTH 7 0
BBX 7 3 0 1
BITMAP
d8
6c
36
ENDCHAR
STARTCHAR Breve
ENCODING 241
SWIDTH 322 0
DWIDTH 5 0
BBX 5 3 0 0
BITMAP
88
f8
70
ENDCHAR
STARTCHAR DownBreve
ENCODING 242
SWIDTH 322 0
DWIDTH 5 0
BBX 5 3 0 0
BITMAP
70
f8
88
ENDCHAR
STARTCHAR OverTilde
ENCODING 243
SWIDTH 357 0
DWIDTH 5 0
BBX 5 2 0 1
BITMAP
68
b0
ENDCHAR
STARTCHAR Tilde2
ENCODING 244
SWIDTH 666 0
DWIDTH 9 0
BBX 9 3 0 1
BITMAP
7080
7f00
8700
ENDCHAR
STARTCHAR Tilde3
ENCODING 245
SWIDTH 1000 0
DWIDTH 14 0
BBX 14 3 0 1
BITMAP
3e04
7ff8
81f0
ENDCHAR
STARTCHAR Tilde4
ENCODING 246
SWIDTH 1333 0
DWIDTH 19 0
BBX 19 3 0 1
BITMAP
1fc060
7fffc0
c07f00
ENDCHAR
STARTCHAR BackQuote
ENCODING 247
SWIDTH 348 0
DWIDTH 5 0
BBX 3 4 1 6
BITMAP
60
60
c0
80
ENDCHAR
STARTCHAR DblBackQuote
ENCODING 248
SWIDTH 577 0
DWIDTH 8 0
BBX 6 4 1 6
BITMAP
6c
6c
d8
90
ENDCHAR
STARTCHAR Quote
ENCODING 249
SWIDTH 348 0
DWIDTH 5 0
BBX 3 4 1 6
BITMAP
c0
c0
60
20
ENDCHAR
STARTCHAR DblQuote
ENCODING 250
SWIDTH 577 0
DWIDTH 8 0
BBX 6 4 1 6
BITMAP
d8
d8
6c
24
ENDCHAR
STARTCHAR VertBar
ENCODING 251
SWIDTH 272 0
DWIDTH 4 0
BBX 2 11 1 -1
BITMAP
c0
c0
c0
c0
c0
c0
c0
c0
c0
c0
c0
ENDCHAR
STARTCHAR DblVertBar
ENCODING 252
SWIDTH 516 0
DWIDTH 7 0
BBX 5 11 1 -1
BITMAP
d8
d8
d8
d8
d8
d8
d8
d8
d8
d8
d8
ENDCHAR
STARTCHAR VertBarExten
ENCODING 253
SWIDTH 272 0
DWIDTH 4 0
BBX 2 8 1 -1
BITMAP
c0
c0
c0
c0
c0
c0
c0
c0
ENDCHAR
STARTCHAR DblVertBarExten
ENCODING 254
SWIDTH 516 0
DWIDTH 7 0
BBX 5 8 1 -1
BITMAP
d8
d8
d8
d8
d8
d8
d8
d8
ENDCHAR
STARTCHAR Coproduct
ENCODING 255
SWIDTH 733 0
DWIDTH 10 0
BBX 10 9 0 0
BITMAP
f3c0
6180
6180
6180
6180
6180
6180
6180
ffc0
ENDCHAR
ENDFONT
